<svg width="2334" height="873" viewBox="0 0 2334 873" fill="none" xmlns="http://www.w3.org/2000/svg">
<path fill-rule="evenodd" clip-rule="evenodd" d="M407.236 208.708C454.2 209.106 491.929 247.501 491.505 294.466C491.482 297.047 491.344 299.599 491.096 302.12C490.188 316.953 484.872 331.506 475.308 343.647C469.229 352.014 461.665 359.228 453.007 364.905L130.078 648.884C116.485 660.838 99.0059 667.431 80.9086 667.431H10.2109C4.57148 667.431 -3.1136e-07 662.857 0 657.215L4.42771e-06 576.975C5.61025e-06 555.545 9.22132 535.152 25.3091 521.003L189.113 376.943L1.90032 375.354L2.66812 290.318C3.09217 243.354 41.5081 205.605 88.4726 206.003L407.236 208.708ZM515.61 491.525L371.269 491.768C324.303 491.847 286.298 529.984 286.382 576.95L286.401 587.494C286.474 628.637 319.887 661.934 361.03 661.865L430.875 661.747C477.841 661.668 515.846 623.531 515.762 576.565L515.61 491.525Z" fill="#0C153D"/>
<path d="M656.8 557.2L805 376.6H667V304H908.2V359.2L760.6 540.4H908.2V612.4H656.8V557.2ZM1107.08 622C1057.08 622 1017.68 607.6 988.881 578.8C960.481 550 946.281 510 946.281 458.8C946.281 425.6 952.481 396.8 964.881 372.4C977.281 347.6 994.681 328.6 1017.08 315.4C1039.88 302.2 1066.48 295.6 1096.88 295.6C1141.68 295.6 1176.08 310 1200.08 338.8C1224.08 367.6 1236.08 409.2 1236.08 463.6C1236.08 472.8 1235.88 479.6 1235.48 484H1031.48C1035.48 505.2 1044.68 521.4 1059.08 532.6C1073.48 543.4 1092.88 548.8 1117.28 548.8C1132.08 548.8 1147.48 547 1163.48 543.4C1179.48 539.4 1193.48 534.2 1205.48 527.8L1219.28 595.6C1203.28 604 1185.48 610.4 1165.88 614.8C1146.68 619.6 1127.08 622 1107.08 622ZM1155.08 420.4C1153.88 403.2 1147.88 389.6 1137.08 379.6C1126.28 369.2 1111.88 364 1093.88 364C1076.68 364 1062.48 369 1051.28 379C1040.48 389 1033.68 402.8 1030.88 420.4H1155.08ZM1448.1 622C1398.1 622 1358.7 607.6 1329.9 578.8C1301.5 550 1287.3 510 1287.3 458.8C1287.3 425.6 1293.5 396.8 1305.9 372.4C1318.3 347.6 1335.7 328.6 1358.1 315.4C1380.9 302.2 1407.5 295.6 1437.9 295.6C1482.7 295.6 1517.1 310 1541.1 338.8C1565.1 367.6 1577.1 409.2 1577.1 463.6C1577.1 472.8 1576.9 479.6 1576.5 484H1372.5C1376.5 505.2 1385.7 521.4 1400.1 532.6C1414.5 543.4 1433.9 548.8 1458.3 548.8C1473.1 548.8 1488.5 547 1504.5 543.4C1520.5 539.4 1534.5 534.2 1546.5 527.8L1560.3 595.6C1544.3 604 1526.5 610.4 1506.9 614.8C1487.7 619.6 1468.1 622 1448.1 622ZM1496.1 420.4C1494.9 403.2 1488.9 389.6 1478.1 379.6C1467.3 369.2 1452.9 364 1434.9 364C1417.7 364 1403.5 369 1392.3 379C1381.5 389 1374.7 402.8 1371.9 420.4H1496.1ZM1640.38 304H1723.18V357.4C1735.98 336.2 1750.78 320.6 1767.58 310.6C1784.38 300.6 1803.98 295.6 1826.38 295.6C1859.58 295.6 1885.58 305.6 1904.38 325.6C1923.18 345.2 1932.58 372.6 1932.58 407.8V613H1847.98V421C1847.98 405 1843.98 392.6 1835.98 383.8C1827.98 374.6 1817.18 370 1803.58 370C1787.58 370 1772.38 376 1757.98 388C1743.58 400 1732.58 415.2 1724.98 433.6V613H1640.38V304ZM2153.5 622C2122.3 622 2094.7 615.2 2070.7 601.6C2047.1 588 2028.7 569 2015.5 544.6C2002.3 519.8 1995.7 491.2 1995.7 458.8C1995.7 426.4 2002.1 398 2014.9 373.6C2028.1 348.8 2046.5 329.6 2070.1 316C2094.1 302.4 2121.7 295.6 2152.9 295.6C2184.1 295.6 2211.5 302.4 2235.1 316C2259.1 329.2 2277.5 348 2290.3 372.4C2303.5 396.8 2310.1 425 2310.1 457C2310.1 489.4 2303.5 518.2 2290.3 543.4C2277.5 568.2 2259.1 587.6 2235.1 601.6C2211.5 615.2 2184.3 622 2153.5 622ZM2152.9 548.8C2174.5 548.8 2191.7 540.6 2204.5 524.2C2217.7 507.4 2224.3 485.4 2224.3 458.2C2224.3 431 2217.7 409.4 2204.5 393.4C2191.7 377 2174.5 368.8 2152.9 368.8C2131.3 368.8 2113.9 377 2100.7 393.4C2087.9 409.4 2081.5 431 2081.5 458.2C2081.5 485.4 2087.9 507.4 2100.7 524.2C2113.9 540.6 2131.3 548.8 2152.9 548.8Z" fill="#0C153D"/>
</svg>
