<svg width="2327" height="1246" viewBox="0 0 2327 1246" fill="none" xmlns="http://www.w3.org/2000/svg">
<path d="M1143.88 702.7C1143.88 740.193 1129.82 769.547 1101.7 790.76C1073.58 811.973 1032.14 822.58 977.38 822.58C956.66 822.58 937.42 821.1 919.66 818.14C901.9 815.18 886.607 810.74 873.78 804.82C861.447 798.407 851.58 790.513 844.18 781.14C837.273 771.767 833.82 760.667 833.82 747.84C833.82 736 836.287 726.133 841.22 718.24C846.153 709.853 852.073 702.947 858.98 697.52C873.287 705.413 889.567 712.567 907.82 718.98C926.567 724.9 948.027 727.86 972.2 727.86C987.493 727.86 999.087 725.64 1006.98 721.2C1015.37 716.76 1019.56 710.84 1019.56 703.44C1019.56 696.533 1016.6 691.107 1010.68 687.16C1004.76 683.213 994.893 680.007 981.08 677.54L958.88 673.1C915.96 664.713 883.893 651.64 862.68 633.88C841.96 615.627 831.6 589.727 831.6 556.18C831.6 537.927 835.547 521.4 843.44 506.6C851.333 491.8 862.433 479.467 876.74 469.6C891.047 459.733 908.067 452.087 927.8 446.66C948.027 441.233 970.227 438.52 994.4 438.52C1012.65 438.52 1029.67 440 1045.46 442.96C1061.74 445.427 1075.8 449.373 1087.64 454.8C1099.48 460.227 1108.85 467.38 1115.76 476.26C1122.67 484.647 1126.12 494.76 1126.12 506.6C1126.12 517.947 1123.9 527.813 1119.46 536.2C1115.51 544.093 1110.33 550.753 1103.92 556.18C1099.97 553.713 1094.05 551.247 1086.16 548.78C1078.27 545.82 1069.63 543.353 1060.26 541.38C1050.89 538.913 1041.27 536.94 1031.4 535.46C1022.03 533.98 1013.39 533.24 1005.5 533.24C989.22 533.24 976.64 535.213 967.76 539.16C958.88 542.613 954.44 548.287 954.44 556.18C954.44 561.607 956.907 566.047 961.84 569.5C966.773 572.953 976.147 576.16 989.96 579.12L1012.9 584.3C1060.26 595.153 1093.81 610.2 1113.54 629.44C1133.77 648.187 1143.88 672.607 1143.88 702.7ZM1295.72 809.26C1290.29 810.247 1282.15 811.48 1271.3 812.96C1260.94 814.933 1250.33 815.92 1239.48 815.92C1228.63 815.92 1218.76 815.18 1209.88 813.7C1201.49 812.22 1194.34 809.26 1188.42 804.82C1182.5 800.38 1177.81 794.46 1174.36 787.06C1171.4 779.167 1169.92 769.053 1169.92 756.72V327.52C1175.35 326.533 1183.24 325.3 1193.6 323.82C1204.45 321.847 1215.31 320.86 1226.16 320.86C1237.01 320.86 1246.63 321.6 1255.02 323.08C1263.9 324.56 1271.3 327.52 1277.22 331.96C1283.14 336.4 1287.58 342.567 1290.54 350.46C1293.99 357.86 1295.72 367.727 1295.72 380.06V809.26ZM1492.02 730.08C1500.41 730.08 1509.53 729.34 1519.4 727.86C1529.76 725.887 1537.41 723.42 1542.34 720.46V661.26L1489.06 665.7C1475.25 666.687 1463.9 669.647 1455.02 674.58C1446.14 679.513 1441.7 686.913 1441.7 696.78C1441.7 706.647 1445.4 714.787 1452.8 721.2C1460.69 727.12 1473.77 730.08 1492.02 730.08ZM1486.1 439.26C1512.74 439.26 1536.91 441.973 1558.62 447.4C1580.82 452.827 1599.57 461.213 1614.86 472.56C1630.65 483.413 1642.73 497.473 1651.12 514.74C1659.51 531.513 1663.7 551.493 1663.7 574.68V740.44C1663.7 753.267 1660 763.873 1652.6 772.26C1645.69 780.153 1637.31 787.06 1627.44 792.98C1595.37 812.22 1550.23 821.84 1492.02 821.84C1465.87 821.84 1442.19 819.373 1420.98 814.44C1400.26 809.507 1382.25 802.107 1366.96 792.24C1352.16 782.373 1340.57 769.793 1332.18 754.5C1324.29 739.207 1320.34 721.447 1320.34 701.22C1320.34 667.18 1330.45 641.033 1350.68 622.78C1370.91 604.527 1402.23 593.18 1444.66 588.74L1541.6 578.38V573.2C1541.6 558.893 1535.19 548.78 1522.36 542.86C1510.03 536.447 1492.02 533.24 1468.34 533.24C1449.59 533.24 1431.34 535.213 1413.58 539.16C1395.82 543.107 1379.79 548.04 1365.48 553.96C1359.07 549.52 1353.64 542.86 1349.2 533.98C1344.76 524.607 1342.54 514.987 1342.54 505.12C1342.54 492.293 1345.5 482.18 1351.42 474.78C1357.83 466.887 1367.45 460.227 1380.28 454.8C1394.59 449.373 1411.36 445.427 1430.6 442.96C1450.33 440.493 1468.83 439.26 1486.1 439.26ZM1829.42 686.42C1829.42 699.247 1833.37 708.373 1841.26 713.8C1849.65 719.227 1861.24 721.94 1876.04 721.94C1883.44 721.94 1891.09 721.447 1898.98 720.46C1906.87 718.98 1913.78 717.253 1919.7 715.28C1924.14 720.707 1927.84 726.873 1930.8 733.78C1934.25 740.193 1935.98 748.087 1935.98 757.46C1935.98 776.207 1928.83 791.5 1914.52 803.34C1900.71 815.18 1876.04 821.1 1840.52 821.1C1797.11 821.1 1763.56 811.233 1739.88 791.5C1716.69 771.767 1705.1 739.7 1705.1 695.3V378.58C1710.53 377.1 1718.17 375.62 1728.04 374.14C1738.4 372.167 1749.25 371.18 1760.6 371.18C1782.31 371.18 1799.08 375.127 1810.92 383.02C1823.25 390.42 1829.42 406.453 1829.42 431.12V478.48H1926.36C1929.32 483.907 1932.03 490.813 1934.5 499.2C1937.46 507.093 1938.94 515.973 1938.94 525.84C1938.94 543.107 1934.99 555.687 1927.1 563.58C1919.7 570.98 1909.59 574.68 1896.76 574.68H1829.42V686.42ZM2148.75 821.84C2119.65 821.84 2092.51 817.893 2067.35 810C2042.69 801.613 2020.98 789.28 2002.23 773C1983.98 756.72 1969.43 736.247 1958.57 711.58C1948.21 686.913 1943.03 658.053 1943.03 625C1943.03 592.44 1948.21 564.567 1958.57 541.38C1969.43 517.7 1983.49 498.46 2000.75 483.66C2018.02 468.367 2037.75 457.267 2059.95 450.36C2082.15 442.96 2104.85 439.26 2128.03 439.26C2154.18 439.26 2177.86 443.207 2199.07 451.1C2220.78 458.993 2239.28 469.847 2254.57 483.66C2270.36 497.473 2282.45 514 2290.83 533.24C2299.71 552.48 2304.15 573.447 2304.15 596.14C2304.15 612.913 2299.47 625.74 2290.09 634.62C2280.72 643.5 2267.65 649.173 2250.87 651.64L2068.09 679.02C2073.52 695.3 2084.62 707.633 2101.39 716.02C2118.17 723.913 2137.41 727.86 2159.11 727.86C2179.34 727.86 2198.33 725.393 2216.09 720.46C2234.35 715.033 2249.15 708.867 2260.49 701.96C2268.39 706.893 2275.05 713.8 2280.47 722.68C2285.9 731.56 2288.61 740.933 2288.61 750.8C2288.61 773 2278.25 789.527 2257.53 800.38C2241.75 808.767 2223.99 814.44 2204.25 817.4C2184.52 820.36 2166.02 821.84 2148.75 821.84ZM2128.03 531.02C2116.19 531.02 2105.83 532.993 2096.95 536.94C2088.57 540.887 2081.66 546.067 2076.23 552.48C2070.81 558.4 2066.61 565.307 2063.65 573.2C2061.19 580.6 2059.71 588.247 2059.21 596.14L2185.75 575.42C2184.27 565.553 2178.85 555.687 2169.47 545.82C2160.1 535.953 2146.29 531.02 2128.03 531.02Z" fill="black"/>
<path d="M1101.7 790.76L1104.71 794.752L1104.71 794.752L1101.7 790.76ZM919.66 818.14L920.482 813.208L919.66 818.14ZM873.78 804.82L871.473 809.256L871.578 809.31L871.685 809.36L873.78 804.82ZM844.18 781.14L840.155 784.106L840.204 784.173L840.256 784.238L844.18 781.14ZM841.22 718.24L845.46 720.89L845.496 720.833L845.53 720.775L841.22 718.24ZM858.98 697.52L861.395 693.142L858.495 691.542L855.891 693.588L858.98 697.52ZM907.82 718.98L906.163 723.697L906.238 723.724L906.314 723.748L907.82 718.98ZM1006.98 721.2L1004.64 716.781L1004.58 716.811L1004.53 716.842L1006.98 721.2ZM981.08 677.54L980.099 682.443L980.15 682.453L980.201 682.462L981.08 677.54ZM958.88 673.1L959.861 668.197L959.85 668.195L959.839 668.193L958.88 673.1ZM862.68 633.88L859.375 637.632L859.422 637.673L859.47 637.714L862.68 633.88ZM843.44 506.6L839.028 504.247L839.028 504.247L843.44 506.6ZM876.74 469.6L879.579 473.716L879.579 473.716L876.74 469.6ZM927.8 446.66L926.504 441.831L926.489 441.835L926.474 441.839L927.8 446.66ZM1045.46 442.96L1044.54 447.874L1044.62 447.89L1044.71 447.904L1045.46 442.96ZM1087.64 454.8L1085.56 459.345L1085.56 459.345L1087.64 454.8ZM1115.76 476.26L1111.81 479.33L1111.86 479.385L1111.9 479.439L1115.76 476.26ZM1119.46 536.2L1115.04 533.861L1115.01 533.912L1114.99 533.964L1119.46 536.2ZM1103.92 556.18L1101.27 560.42L1104.36 562.354L1107.15 559.997L1103.92 556.18ZM1086.16 548.78L1084.4 553.462L1084.54 553.511L1084.67 553.552L1086.16 548.78ZM1060.26 541.38L1058.99 546.215L1059.11 546.247L1059.23 546.273L1060.26 541.38ZM1031.4 535.46L1030.62 540.399L1030.64 540.402L1030.66 540.405L1031.4 535.46ZM967.76 539.16L969.572 543.82L969.683 543.777L969.791 543.729L967.76 539.16ZM961.84 569.5L958.973 573.596L958.973 573.596L961.84 569.5ZM989.96 579.12L991.061 574.243L991.035 574.237L991.008 574.231L989.96 579.12ZM1012.9 584.3L1014.02 579.426L1014.01 579.425L1014 579.423L1012.9 584.3ZM1113.54 629.44L1110.05 633.02L1110.09 633.064L1110.14 633.107L1113.54 629.44ZM1138.88 702.7C1138.88 738.742 1125.47 766.569 1098.69 786.768L1104.71 794.752C1134.17 772.525 1148.88 741.645 1148.88 702.7H1138.88ZM1098.69 786.768C1071.8 807.054 1031.62 817.58 977.38 817.58V827.58C1032.66 827.58 1075.36 816.893 1104.71 794.752L1098.69 786.768ZM977.38 817.58C956.895 817.58 937.933 816.117 920.482 813.208L918.838 823.072C936.907 826.083 956.425 827.58 977.38 827.58V817.58ZM920.482 813.208C903.048 810.302 888.204 805.97 875.875 800.28L871.685 809.36C885.01 815.51 900.752 820.058 918.838 823.072L920.482 813.208ZM876.087 800.384C864.279 794.244 855 786.776 848.104 778.042L840.256 784.238C848.16 794.251 858.614 802.569 871.473 809.256L876.087 800.384ZM848.205 778.174C841.996 769.748 838.82 759.714 838.82 747.84H828.82C828.82 761.62 832.55 773.786 840.155 784.106L848.205 778.174ZM838.82 747.84C838.82 736.685 841.142 727.799 845.46 720.89L836.98 715.59C831.431 724.468 828.82 735.315 828.82 747.84H838.82ZM845.53 720.775C850.181 712.868 855.703 706.454 862.069 701.452L855.891 693.588C848.444 699.44 842.126 706.839 836.91 715.705L845.53 720.775ZM856.565 701.898C871.153 709.947 887.694 717.208 906.163 723.697L909.477 714.263C891.44 707.925 875.42 700.88 861.395 693.142L856.565 701.898ZM906.314 723.748C925.645 729.852 947.628 732.86 972.2 732.86V722.86C948.425 722.86 927.488 719.948 909.326 714.212L906.314 723.748ZM972.2 732.86C987.832 732.86 1000.44 730.616 1009.43 725.558L1004.53 716.842C997.734 720.664 987.155 722.86 972.2 722.86V732.86ZM1009.32 725.619C1018.8 720.6 1024.56 713.234 1024.56 703.44H1014.56C1014.56 708.446 1011.93 712.92 1004.64 716.781L1009.32 725.619ZM1024.56 703.44C1024.56 694.802 1020.71 687.84 1013.45 683L1007.91 691.32C1012.49 694.373 1014.56 698.265 1014.56 703.44H1024.56ZM1013.45 683C1006.64 678.456 995.919 675.111 981.959 672.618L980.201 682.462C993.868 684.903 1002.88 687.97 1007.91 691.32L1013.45 683ZM982.061 672.637L959.861 668.197L957.899 678.003L980.099 682.443L982.061 672.637ZM959.839 668.193C917.313 659.883 886.184 647.037 865.89 630.046L859.47 637.714C881.602 656.243 914.607 669.544 957.921 678.007L959.839 668.193ZM865.985 630.128C846.571 613.026 836.6 588.627 836.6 556.18H826.6C826.6 590.827 837.349 618.228 859.375 637.632L865.985 630.128ZM836.6 556.18C836.6 538.673 840.378 522.966 847.852 508.953L839.028 504.247C830.715 519.834 826.6 537.18 826.6 556.18H836.6ZM847.852 508.953C855.355 494.884 865.905 483.146 879.579 473.716L873.901 465.484C858.962 475.787 847.311 488.716 839.028 504.247L847.852 508.953ZM879.579 473.716C893.35 464.218 909.839 456.785 929.126 451.481L926.474 441.839C906.294 447.388 888.743 455.248 873.901 465.484L879.579 473.716ZM929.096 451.489C948.841 446.192 970.598 443.52 994.4 443.52V433.52C969.855 433.52 947.213 436.275 926.504 441.831L929.096 451.489ZM994.4 443.52C1012.39 443.52 1029.09 444.978 1044.54 447.874L1046.38 438.046C1030.25 435.022 1012.92 433.52 994.4 433.52V443.52ZM1044.71 447.904C1060.65 450.318 1074.24 454.156 1085.56 459.345L1089.72 450.255C1077.36 444.59 1062.83 440.535 1046.21 438.016L1044.71 447.904ZM1085.56 459.345C1096.78 464.49 1105.47 471.178 1111.81 479.33L1119.71 473.19C1112.23 463.582 1102.18 455.963 1089.72 450.255L1085.56 459.345ZM1111.9 479.439C1118 486.848 1121.12 495.808 1121.12 506.6H1131.12C1131.12 493.712 1127.33 482.446 1119.62 473.081L1111.9 479.439ZM1121.12 506.6C1121.12 517.29 1119.03 526.323 1115.04 533.861L1123.88 538.539C1128.77 529.304 1131.12 518.603 1131.12 506.6H1121.12ZM1114.99 533.964C1111.33 541.283 1106.56 547.396 1100.69 552.363L1107.15 559.997C1114.11 554.111 1119.7 546.904 1123.93 538.436L1114.99 533.964ZM1106.57 551.94C1102.09 549.137 1095.69 546.519 1087.65 544.008L1084.67 553.552C1092.42 555.974 1097.86 558.29 1101.27 560.42L1106.57 551.94ZM1087.92 544.098C1079.76 541.039 1070.88 538.506 1061.29 536.487L1059.23 546.273C1068.39 548.201 1076.78 550.601 1084.4 553.462L1087.92 544.098ZM1061.53 536.545C1051.98 534.031 1042.18 532.021 1032.14 530.515L1030.66 540.405C1040.35 541.859 1049.79 543.796 1058.99 546.215L1061.53 536.545ZM1032.18 530.521C1022.6 529.008 1013.7 528.24 1005.5 528.24V538.24C1013.09 538.24 1021.46 538.952 1030.62 540.399L1032.18 530.521ZM1005.5 528.24C988.931 528.24 975.54 530.231 965.729 534.591L969.791 543.729C977.74 540.196 989.509 538.24 1005.5 538.24V528.24ZM965.948 534.5C960.933 536.45 956.757 539.186 953.832 542.923C950.857 546.725 949.44 551.23 949.44 556.18H959.44C959.44 553.237 960.243 550.958 961.708 549.087C963.223 547.15 965.707 545.323 969.572 543.82L965.948 534.5ZM949.44 556.18C949.44 563.436 952.874 569.327 958.973 573.596L964.707 565.404C960.94 562.766 959.44 559.777 959.44 556.18H949.44ZM958.973 573.596C964.815 577.686 975.094 581.048 988.912 584.009L991.008 574.231C977.199 571.272 968.732 568.221 964.707 565.404L958.973 573.596ZM988.859 583.997L1011.8 589.177L1014 579.423L991.061 574.243L988.859 583.997ZM1011.78 589.174C1058.84 599.958 1091.3 614.743 1110.05 633.02L1117.03 625.86C1096.31 605.657 1061.68 590.349 1014.02 579.426L1011.78 589.174ZM1110.14 633.107C1129.25 650.815 1138.88 673.857 1138.88 702.7H1148.88C1148.88 671.356 1138.29 645.558 1116.94 625.773L1110.14 633.107ZM1295.72 809.26L1296.61 814.179L1300.72 813.433V809.26H1295.72ZM1271.3 812.96L1270.62 808.006L1270.49 808.024L1270.36 808.048L1271.3 812.96ZM1209.88 813.7L1209.01 818.624L1209.03 818.628L1209.06 818.632L1209.88 813.7ZM1188.42 804.82L1185.42 808.82L1188.42 804.82ZM1174.36 787.06L1169.68 788.816L1169.75 788.998L1169.83 789.174L1174.36 787.06ZM1169.92 327.52L1169.02 322.601L1164.92 323.347V327.52H1169.92ZM1193.6 323.82L1194.31 328.77L1194.4 328.756L1194.49 328.739L1193.6 323.82ZM1255.02 323.08L1254.15 328.004L1254.17 328.008L1254.2 328.012L1255.02 323.08ZM1277.22 331.96L1274.22 335.96L1274.22 335.96L1277.22 331.96ZM1290.54 350.46L1285.86 352.216L1285.93 352.398L1286.01 352.574L1290.54 350.46ZM1294.82 804.341C1289.51 805.307 1281.46 806.528 1270.62 808.006L1271.97 817.914C1282.84 816.432 1291.07 815.187 1296.61 814.179L1294.82 804.341ZM1270.36 808.048C1260.32 809.961 1250.03 810.92 1239.48 810.92V820.92C1250.64 820.92 1261.56 819.905 1272.23 817.872L1270.36 808.048ZM1239.48 810.92C1228.85 810.92 1219.26 810.195 1210.7 808.768L1209.06 818.632C1218.26 820.165 1228.4 820.92 1239.48 820.92V810.92ZM1210.75 808.776C1203.02 807.412 1196.62 804.723 1191.42 800.82L1185.42 808.82C1192.06 813.797 1199.97 817.028 1209.01 818.624L1210.75 808.776ZM1191.42 800.82C1186.22 796.923 1182.03 791.679 1178.89 784.946L1169.83 789.174C1173.59 797.241 1178.78 803.837 1185.42 808.82L1191.42 800.82ZM1179.04 785.304C1176.36 778.168 1174.92 768.706 1174.92 756.72H1164.92C1164.92 769.4 1166.43 780.165 1169.68 788.816L1179.04 785.304ZM1174.92 756.72V327.52H1164.92V756.72H1174.92ZM1170.81 332.439C1176.15 331.47 1183.96 330.247 1194.31 328.77L1192.89 318.87C1182.51 320.353 1174.55 321.597 1169.02 322.601L1170.81 332.439ZM1194.49 328.739C1205.06 326.819 1215.61 325.86 1226.16 325.86V315.86C1215 315.86 1203.85 316.875 1192.7 318.901L1194.49 328.739ZM1226.16 325.86C1236.8 325.86 1246.12 326.586 1254.15 328.004L1255.89 318.156C1247.15 316.614 1237.23 315.86 1226.16 315.86V325.86ZM1254.2 328.012C1262.46 329.388 1269.06 332.094 1274.22 335.96L1280.22 327.96C1273.53 322.946 1265.34 319.732 1255.84 318.148L1254.2 328.012ZM1274.22 335.96C1279.27 339.751 1283.18 345.088 1285.86 352.216L1295.22 348.704C1291.97 340.045 1287 333.049 1280.22 327.96L1274.22 335.96ZM1286.01 352.574C1289.04 359.062 1290.72 368.118 1290.72 380.06H1300.72C1300.72 367.335 1298.95 356.658 1295.07 348.346L1286.01 352.574ZM1290.72 380.06V809.26H1300.72V380.06H1290.72ZM1519.4 727.86L1520.14 732.805L1520.24 732.79L1520.34 732.772L1519.4 727.86ZM1542.34 720.46L1544.91 724.747L1547.34 723.291V720.46H1542.34ZM1542.34 661.26H1547.34V655.826L1541.93 656.277L1542.34 661.26ZM1489.06 665.7L1489.42 670.687L1489.45 670.685L1489.48 670.683L1489.06 665.7ZM1455.02 674.58L1452.59 670.209L1452.59 670.209L1455.02 674.58ZM1452.8 721.2L1449.53 724.978L1449.66 725.094L1449.8 725.2L1452.8 721.2ZM1558.62 447.4L1557.41 452.251L1557.42 452.254L1557.43 452.257L1558.62 447.4ZM1614.86 472.56L1611.88 476.575L1611.95 476.629L1612.03 476.68L1614.86 472.56ZM1651.12 514.74L1646.62 516.925L1646.64 516.95L1646.65 516.976L1651.12 514.74ZM1652.6 772.26L1648.85 768.952L1648.85 768.96L1648.84 768.967L1652.6 772.26ZM1627.44 792.98L1624.87 788.693L1624.87 788.693L1627.44 792.98ZM1420.98 814.44L1419.82 819.304L1419.84 819.307L1419.85 819.31L1420.98 814.44ZM1366.96 792.24L1364.19 796.4L1364.22 796.421L1364.25 796.441L1366.96 792.24ZM1332.18 754.5L1327.74 756.793L1327.77 756.849L1327.8 756.904L1332.18 754.5ZM1350.68 622.78L1347.33 619.068L1347.33 619.068L1350.68 622.78ZM1444.66 588.74L1445.18 593.713L1445.19 593.712L1444.66 588.74ZM1541.6 578.38L1542.13 583.352L1546.6 582.874V578.38H1541.6ZM1522.36 542.86L1520.05 547.296L1520.16 547.35L1520.27 547.4L1522.36 542.86ZM1413.58 539.16L1412.5 534.279L1412.5 534.279L1413.58 539.16ZM1365.48 553.96L1362.64 558.071L1364.88 559.622L1367.39 558.58L1365.48 553.96ZM1349.2 533.98L1344.68 536.12L1344.71 536.168L1344.73 536.216L1349.2 533.98ZM1351.42 474.78L1347.54 471.627L1347.53 471.642L1347.52 471.657L1351.42 474.78ZM1380.28 454.8L1378.51 450.125L1378.42 450.158L1378.33 450.195L1380.28 454.8ZM1430.6 442.96L1429.98 437.999L1429.97 438L1429.97 438.001L1430.6 442.96ZM1492.02 735.08C1500.7 735.08 1510.08 734.315 1520.14 732.805L1518.66 722.915C1508.99 724.365 1500.12 725.08 1492.02 725.08V735.08ZM1520.34 732.772C1530.88 730.764 1539.22 728.166 1544.91 724.747L1539.77 716.173C1535.6 718.674 1528.65 721.009 1518.47 722.948L1520.34 732.772ZM1547.34 720.46V661.26H1537.34V720.46H1547.34ZM1541.93 656.277L1488.65 660.717L1489.48 670.683L1542.76 666.243L1541.93 656.277ZM1488.7 660.713C1474.41 661.734 1462.3 664.818 1452.59 670.209L1457.45 678.951C1465.5 674.476 1476.08 671.64 1489.42 670.687L1488.7 660.713ZM1452.59 670.209C1447.52 673.026 1443.49 676.682 1440.74 681.258C1437.99 685.841 1436.7 691.073 1436.7 696.78H1446.7C1446.7 692.62 1447.63 689.219 1449.32 686.402C1451.01 683.578 1453.64 681.067 1457.45 678.951L1452.59 670.209ZM1436.7 696.78C1436.7 708.084 1441.02 717.607 1449.53 724.978L1456.08 717.422C1449.78 711.966 1446.7 705.209 1446.7 696.78H1436.7ZM1449.8 725.2C1459.03 732.124 1473.48 735.08 1492.02 735.08V725.08C1474.05 725.08 1462.36 722.116 1455.8 717.2L1449.8 725.2ZM1486.1 444.26C1512.41 444.26 1536.17 446.94 1557.41 452.251L1559.83 442.549C1537.66 437.007 1513.07 434.26 1486.1 434.26V444.26ZM1557.43 452.257C1579.11 457.556 1597.22 465.697 1611.88 476.575L1617.84 468.544C1601.92 456.73 1582.53 448.097 1559.81 442.543L1557.43 452.257ZM1612.03 476.68C1627.1 487.042 1638.61 500.435 1646.62 516.925L1655.62 512.555C1646.85 494.512 1634.2 479.784 1617.69 468.44L1612.03 476.68ZM1646.65 516.976C1654.62 532.91 1658.7 552.09 1658.7 574.68H1668.7C1668.7 550.897 1664.4 530.116 1655.59 512.504L1646.65 516.976ZM1658.7 574.68V740.44H1668.7V574.68H1658.7ZM1658.7 740.44C1658.7 752.239 1655.33 761.612 1648.85 768.952L1656.35 775.568C1664.67 766.135 1668.7 754.294 1668.7 740.44H1658.7ZM1648.84 768.967C1642.31 776.433 1634.33 783.014 1624.87 788.693L1630.01 797.267C1640.28 791.106 1649.08 783.873 1656.36 775.553L1648.84 768.967ZM1624.87 788.693C1593.9 807.275 1549.79 816.84 1492.02 816.84V826.84C1550.68 826.84 1596.85 817.165 1630.01 797.267L1624.87 788.693ZM1492.02 816.84C1466.18 816.84 1442.89 814.402 1422.11 809.57L1419.85 819.31C1441.5 824.345 1465.57 826.84 1492.02 826.84V816.84ZM1422.14 809.576C1401.88 804.752 1384.42 797.551 1369.67 788.039L1364.25 796.441C1380.09 806.663 1398.64 814.261 1419.82 819.304L1422.14 809.576ZM1369.73 788.08C1355.59 778.651 1344.56 766.668 1336.57 752.096L1327.8 756.904C1336.58 772.919 1348.73 786.096 1364.19 796.4L1369.73 788.08ZM1336.62 752.207C1329.16 737.737 1325.34 720.788 1325.34 701.22H1315.34C1315.34 722.105 1319.42 740.676 1327.74 756.793L1336.62 752.207ZM1325.34 701.22C1325.34 668.216 1335.11 643.57 1354.03 626.492L1347.33 619.068C1325.8 638.497 1315.34 666.144 1315.34 701.22H1325.34ZM1354.03 626.492C1373.14 609.247 1403.25 598.101 1445.18 593.713L1444.14 583.767C1401.22 588.259 1368.68 599.806 1347.33 619.068L1354.03 626.492ZM1445.19 593.712L1542.13 583.352L1541.07 573.408L1444.13 583.768L1445.19 593.712ZM1546.6 578.38V573.2H1536.6V578.38H1546.6ZM1546.6 573.2C1546.6 565.285 1544.82 558.209 1541.01 552.207C1537.21 546.202 1531.58 541.61 1524.46 538.32L1520.27 547.4C1525.97 550.03 1529.96 553.455 1532.57 557.563C1535.18 561.674 1536.6 566.808 1536.6 573.2H1546.6ZM1524.67 538.424C1511.29 531.465 1492.33 528.24 1468.34 528.24V538.24C1491.71 538.24 1508.77 541.428 1520.05 547.296L1524.67 538.424ZM1468.34 528.24C1449.24 528.24 1430.62 530.251 1412.5 534.279L1414.67 544.041C1432.06 540.176 1449.95 538.24 1468.34 538.24V528.24ZM1412.5 534.279C1394.5 538.278 1378.19 543.292 1363.57 549.34L1367.39 558.58C1381.39 552.788 1397.14 547.935 1414.67 544.041L1412.5 534.279ZM1368.33 549.849C1362.77 546.001 1357.84 540.073 1353.67 531.744L1344.73 536.216C1349.44 545.647 1355.37 553.039 1362.64 558.071L1368.33 549.849ZM1353.72 531.84C1349.58 523.1 1347.54 514.208 1347.54 505.12H1337.54C1337.54 515.765 1339.94 526.113 1344.68 536.12L1353.72 531.84ZM1347.54 505.12C1347.54 493.029 1350.33 484.148 1355.33 477.903L1347.52 471.657C1340.67 480.212 1337.54 491.558 1337.54 505.12H1347.54ZM1355.3 477.933C1361.04 470.865 1369.89 464.625 1382.23 459.405L1378.33 450.195C1365.02 455.828 1354.62 462.908 1347.54 471.627L1355.3 477.933ZM1382.05 459.475C1395.91 454.219 1412.29 450.349 1431.24 447.919L1429.97 438.001C1410.43 440.505 1393.26 444.528 1378.51 450.125L1382.05 459.475ZM1431.22 447.921C1450.78 445.477 1469.07 444.26 1486.1 444.26V434.26C1468.6 434.26 1449.89 435.51 1429.98 437.999L1431.22 447.921ZM1841.26 713.8L1838.43 717.92L1838.49 717.96L1838.54 717.998L1841.26 713.8ZM1898.98 720.46L1899.6 725.421L1899.75 725.402L1899.9 725.374L1898.98 720.46ZM1919.7 715.28L1923.57 712.114L1921.39 709.447L1918.12 710.537L1919.7 715.28ZM1930.8 733.78L1926.2 735.75L1926.29 735.954L1926.4 736.15L1930.8 733.78ZM1914.52 803.34L1911.33 799.488L1911.3 799.516L1911.27 799.544L1914.52 803.34ZM1739.88 791.5L1736.64 795.308L1736.66 795.325L1736.68 795.341L1739.88 791.5ZM1705.1 378.58L1703.79 373.756L1700.1 374.761V378.58H1705.1ZM1728.04 374.14L1728.78 379.085L1728.88 379.07L1728.98 379.052L1728.04 374.14ZM1810.92 383.02L1808.15 387.18L1808.25 387.246L1808.35 387.307L1810.92 383.02ZM1829.42 478.48H1824.42V483.48H1829.42V478.48ZM1926.36 478.48L1930.75 476.086L1929.33 473.48H1926.36V478.48ZM1934.5 499.2L1929.7 500.611L1929.76 500.785L1929.82 500.956L1934.5 499.2ZM1829.42 574.68V569.68H1824.42V574.68H1829.42ZM1824.42 686.42C1824.42 700.279 1828.74 711.26 1838.43 717.92L1844.09 709.68C1837.99 705.487 1834.42 698.214 1834.42 686.42H1824.42ZM1838.54 717.998C1848.04 724.143 1860.71 726.94 1876.04 726.94V716.94C1861.77 716.94 1851.25 714.31 1843.98 709.602L1838.54 717.998ZM1876.04 726.94C1883.66 726.94 1891.52 726.432 1899.6 725.421L1898.36 715.499C1890.66 716.461 1883.22 716.94 1876.04 716.94V726.94ZM1899.9 725.374C1907.96 723.864 1915.1 722.086 1921.28 720.023L1918.12 710.537C1912.47 712.421 1905.79 714.096 1898.06 715.546L1899.9 725.374ZM1915.83 718.446C1919.95 723.485 1923.42 729.243 1926.2 735.75L1935.4 731.81C1932.26 724.504 1928.33 717.928 1923.57 712.114L1915.83 718.446ZM1926.4 736.15C1929.36 741.656 1930.98 748.683 1930.98 757.46H1940.98C1940.98 747.49 1939.15 738.731 1935.2 731.409L1926.4 736.15ZM1930.98 757.46C1930.98 774.733 1924.48 788.608 1911.33 799.488L1917.71 807.192C1933.18 794.392 1940.98 777.68 1940.98 757.46H1930.98ZM1911.27 799.544C1898.9 810.147 1875.82 816.1 1840.52 816.1V826.1C1876.26 826.1 1902.52 820.213 1917.77 807.136L1911.27 799.544ZM1840.52 816.1C1797.81 816.1 1765.56 806.389 1743.08 787.659L1736.68 795.341C1761.56 816.078 1796.41 826.1 1840.52 826.1V816.1ZM1743.12 787.692C1721.49 769.279 1710.1 738.923 1710.1 695.3H1700.1C1700.1 740.477 1711.9 774.254 1736.64 795.308L1743.12 787.692ZM1710.1 695.3V378.58H1700.1V695.3H1710.1ZM1706.42 383.404C1711.56 382 1718.99 380.554 1728.78 379.085L1727.3 369.195C1717.36 370.686 1709.49 372.2 1703.79 373.756L1706.42 383.404ZM1728.98 379.052C1739.01 377.141 1749.54 376.18 1760.6 376.18V366.18C1748.96 366.18 1737.8 367.192 1727.11 369.228L1728.98 379.052ZM1760.6 376.18C1781.8 376.18 1797.45 380.052 1808.15 387.18L1813.69 378.86C1800.71 370.201 1782.81 366.18 1760.6 366.18V376.18ZM1808.35 387.307C1818.33 393.299 1824.42 406.932 1824.42 431.12H1834.42C1834.42 405.975 1828.17 387.541 1813.49 378.733L1808.35 387.307ZM1824.42 431.12V478.48H1834.42V431.12H1824.42ZM1829.42 483.48H1926.36V473.48H1829.42V483.48ZM1921.97 480.874C1924.71 485.89 1927.3 492.437 1929.7 500.611L1939.3 497.789C1936.77 489.189 1933.93 481.924 1930.75 476.086L1921.97 480.874ZM1929.82 500.956C1932.54 508.201 1933.94 516.473 1933.94 525.84H1943.94C1943.94 515.474 1942.39 505.986 1939.18 497.444L1929.82 500.956ZM1933.94 525.84C1933.94 542.488 1930.12 553.492 1923.57 560.044L1930.64 567.116C1939.87 557.881 1943.94 543.725 1943.94 525.84H1933.94ZM1923.57 560.044C1917.31 566.304 1908.58 569.68 1896.76 569.68V579.68C1910.6 579.68 1922.1 575.656 1930.64 567.116L1923.57 560.044ZM1896.76 569.68H1829.42V579.68H1896.76V569.68ZM1824.42 574.68V686.42H1834.42V574.68H1824.42ZM2067.35 810L2065.74 814.734L2065.8 814.753L2065.86 814.771L2067.35 810ZM2002.23 773L1998.91 776.731L1998.93 776.753L1998.96 776.775L2002.23 773ZM1958.57 711.58L1953.96 713.516L1953.98 713.555L1954 713.594L1958.57 711.58ZM1958.57 541.38L1954.03 539.297L1954.02 539.318L1954.01 539.34L1958.57 541.38ZM2000.75 483.66L2004.01 487.456L2004.04 487.43L2004.07 487.403L2000.75 483.66ZM2059.95 450.36L2061.44 455.134L2061.49 455.119L2061.53 455.103L2059.95 450.36ZM2199.07 451.1L2197.33 455.786L2197.35 455.793L2197.37 455.799L2199.07 451.1ZM2254.57 483.66L2251.22 487.371L2251.25 487.397L2251.28 487.423L2254.57 483.66ZM2290.83 533.24L2286.25 535.238L2286.27 535.287L2286.29 535.335L2290.83 533.24ZM2290.09 634.62L2286.66 630.99L2286.66 630.99L2290.09 634.62ZM2250.87 651.64L2250.15 646.693L2250.13 646.695L2250.87 651.64ZM2068.09 679.02L2067.35 674.075L2061.47 674.957L2063.35 680.601L2068.09 679.02ZM2101.39 716.02L2099.16 720.492L2099.21 720.519L2099.26 720.544L2101.39 716.02ZM2216.09 720.46L2217.43 725.278L2217.48 725.266L2217.52 725.253L2216.09 720.46ZM2260.49 701.96L2263.14 697.72L2260.53 696.085L2257.89 697.689L2260.49 701.96ZM2280.47 722.68L2284.74 720.073L2284.74 720.073L2280.47 722.68ZM2257.53 800.38L2255.21 795.951L2255.2 795.958L2255.19 795.964L2257.53 800.38ZM2204.25 817.4L2203.51 812.455L2203.51 812.455L2204.25 817.4ZM2096.95 536.94L2094.92 532.371L2094.87 532.393L2094.82 532.416L2096.95 536.94ZM2076.23 552.48L2079.92 555.859L2079.99 555.785L2080.05 555.71L2076.23 552.48ZM2063.65 573.2L2058.97 571.444L2058.94 571.531L2058.91 571.619L2063.65 573.2ZM2059.21 596.14L2054.22 595.828L2053.83 602.088L2060.02 601.074L2059.21 596.14ZM2185.75 575.42L2186.56 580.354L2191.43 579.557L2190.7 574.678L2185.75 575.42ZM2169.47 545.82L2173.1 542.376L2173.1 542.376L2169.47 545.82ZM2148.75 816.84C2120.1 816.84 2093.48 812.956 2068.85 805.229L2065.86 814.771C2091.55 822.831 2119.19 826.84 2148.75 826.84V816.84ZM2068.96 805.266C2044.88 797.077 2023.75 785.059 2005.51 769.225L1998.96 776.775C2018.21 793.501 2040.5 806.149 2065.74 814.734L2068.96 805.266ZM2005.56 769.269C1987.9 753.512 1973.74 733.645 1963.15 709.566L1954 713.594C1965.11 738.848 1980.07 759.928 1998.91 776.731L2005.56 769.269ZM1963.18 709.644C1953.13 685.716 1948.03 657.54 1948.03 625H1938.03C1938.03 658.566 1943.29 688.11 1953.96 713.516L1963.18 709.644ZM1948.03 625C1948.03 592.952 1953.13 565.811 1963.14 543.42L1954.01 539.34C1943.29 563.323 1938.03 591.928 1938.03 625H1948.03ZM1963.12 543.463C1973.71 520.345 1987.36 501.722 2004.01 487.456L1997.5 479.864C1979.61 495.198 1965.14 515.055 1954.03 539.297L1963.12 543.463ZM2004.07 487.403C2020.8 472.583 2039.91 461.832 2061.44 455.134L2058.47 445.586C2035.6 452.701 2015.24 464.15 1997.44 479.917L2004.07 487.403ZM2061.53 455.103C2083.23 447.872 2105.39 444.26 2128.03 444.26V434.26C2104.3 434.26 2081.08 438.048 2058.37 445.617L2061.53 455.103ZM2128.03 444.26C2153.68 444.26 2176.75 448.13 2197.33 455.786L2200.82 446.414C2178.97 438.283 2154.68 434.26 2128.03 434.26V444.26ZM2197.37 455.799C2218.54 463.498 2236.46 474.039 2251.22 487.371L2257.93 479.949C2242.1 465.655 2223.02 454.488 2200.78 446.401L2197.37 455.799ZM2251.28 487.423C2266.51 500.75 2278.16 516.674 2286.25 535.238L2295.42 531.242C2286.74 511.326 2274.21 494.197 2257.87 479.897L2251.28 487.423ZM2286.29 535.335C2294.85 553.873 2299.15 574.118 2299.15 596.14H2309.15C2309.15 572.775 2304.58 551.087 2295.37 531.145L2286.29 535.335ZM2299.15 596.14C2299.15 611.972 2294.76 623.315 2286.66 630.99L2293.53 638.25C2304.18 628.165 2309.15 613.855 2309.15 596.14H2299.15ZM2286.66 630.99C2278.23 638.971 2266.22 644.33 2250.15 646.693L2251.6 656.587C2269.08 654.017 2283.21 648.029 2293.53 638.25L2286.66 630.99ZM2250.13 646.695L2067.35 674.075L2068.83 683.965L2251.61 656.585L2250.13 646.695ZM2063.35 680.601C2069.24 698.262 2081.32 711.573 2099.16 720.492L2103.63 711.548C2087.92 703.694 2077.8 692.338 2072.84 677.439L2063.35 680.601ZM2099.26 720.544C2116.81 728.8 2136.8 732.86 2159.11 732.86V722.86C2138.02 722.86 2119.53 719.027 2103.52 711.496L2099.26 720.544ZM2159.11 732.86C2179.75 732.86 2199.2 730.343 2217.43 725.278L2214.76 715.642C2197.47 720.444 2178.93 722.86 2159.11 722.86V732.86ZM2217.52 725.253C2236.02 719.752 2251.26 713.435 2263.09 706.231L2257.89 697.689C2247.04 704.298 2232.67 710.315 2214.67 715.667L2217.52 725.253ZM2257.84 706.2C2265 710.675 2271.14 716.991 2276.21 725.287L2284.74 720.073C2278.96 710.609 2271.77 703.111 2263.14 697.72L2257.84 706.2ZM2276.21 725.287C2281.18 733.427 2283.61 741.905 2283.61 750.8H2293.61C2293.61 739.962 2290.62 729.693 2284.74 720.073L2276.21 725.287ZM2283.61 750.8C2283.61 761.094 2281.22 769.828 2276.61 777.189C2271.98 784.565 2264.95 790.853 2255.21 795.951L2259.85 804.809C2270.84 799.054 2279.34 791.651 2285.08 782.501C2290.83 773.336 2293.61 762.706 2293.61 750.8H2283.61ZM2255.19 795.964C2239.96 804.056 2222.75 809.57 2203.51 812.455L2205 822.345C2225.22 819.31 2243.54 813.477 2259.88 804.796L2255.19 795.964ZM2203.51 812.455C2183.99 815.384 2165.74 816.84 2148.75 816.84V826.84C2166.3 826.84 2185.05 825.336 2205 822.345L2203.51 812.455ZM2128.03 526.02C2115.64 526.02 2104.57 528.085 2094.92 532.371L2098.98 541.509C2107.1 537.901 2116.74 536.02 2128.03 536.02V526.02ZM2094.82 532.416C2085.86 536.636 2078.35 542.235 2072.42 549.25L2080.05 555.71C2084.97 549.898 2091.28 545.137 2099.08 541.464L2094.82 532.416ZM2072.55 549.101C2066.67 555.517 2062.15 562.982 2058.97 571.444L2068.34 574.956C2071.08 567.632 2074.95 561.283 2079.92 555.859L2072.55 549.101ZM2058.91 571.619C2056.3 579.435 2054.74 587.509 2054.22 595.828L2064.2 596.452C2064.67 588.984 2066.07 581.765 2068.4 574.781L2058.91 571.619ZM2060.02 601.074L2186.56 580.354L2184.95 570.486L2058.41 591.206L2060.02 601.074ZM2190.7 574.678C2189.02 563.487 2182.93 552.722 2173.1 542.376L2165.85 549.264C2174.77 558.651 2179.53 567.619 2180.81 576.162L2190.7 574.678ZM2173.1 542.376C2162.49 531.211 2147.17 526.02 2128.03 526.02V536.02C2145.4 536.02 2157.71 540.695 2165.85 549.264L2173.1 542.376Z" fill="black"/>
<path d="M57.3031 766L141.219 452H592.72L676.688 766H57.3031Z" stroke="black" stroke-width="88"/>
</svg>
